<svg width="400" height="400" viewBox="0 0 400 400" fill="none" xmlns="http://www.w3.org/2000/svg">
<rect x="177.777" y="88.8887" width="29.6296" height="29.6296" fill="#488586"/>
<rect x="181.48" y="192.593" width="22.2222" height="118.519" fill="#488586"/>
<path d="M136.216 218.773C140.073 206.868 147.6 196.49 157.718 189.125C167.836 181.761 180.025 177.788 192.54 177.777L192.552 192C183.041 192.008 173.777 195.027 166.088 200.624C158.398 206.221 152.678 214.109 149.746 223.157L136.216 218.773Z" fill="#488586"/>
<path d="M192.591 177.777C205.106 177.777 217.299 181.739 227.423 189.095C237.547 196.451 245.083 206.823 248.95 218.724L235.424 223.119C232.485 214.074 226.758 206.191 219.063 200.601C211.369 195.011 202.102 192 192.591 192L192.591 177.777Z" fill="#488586"/>
<path d="M180.318 180.32C185.82 174.817 192.353 170.452 199.543 167.474C206.732 164.496 214.438 162.963 222.22 162.963C230.002 162.963 237.708 164.496 244.898 167.474C252.087 170.452 258.62 174.817 264.123 180.32L251.552 192.89C247.7 189.038 243.127 185.983 238.094 183.898C233.062 181.814 227.668 180.741 222.22 180.741C216.773 180.741 211.379 181.814 206.346 183.898C201.313 185.983 196.74 189.038 192.888 192.89L180.318 180.32Z" fill="#488586"/>
<path d="M121.06 180.32C126.562 174.817 133.095 170.452 140.285 167.474C147.475 164.496 155.18 162.963 162.962 162.963C170.744 162.963 178.45 164.496 185.64 167.474C192.83 170.452 199.362 174.817 204.865 180.32L192.294 192.89C188.442 189.038 183.869 185.983 178.837 183.898C173.804 181.814 168.41 180.741 162.962 180.741C157.515 180.741 152.121 181.814 147.088 183.898C142.055 185.983 137.482 189.038 133.631 192.89L121.06 180.32Z" fill="#488586"/>
<path d="M177.777 192.592C177.777 183.241 179.991 174.022 184.236 165.689C188.482 157.357 194.639 150.147 202.205 144.651C209.771 139.154 218.53 135.526 227.766 134.063C237.003 132.6 246.455 133.344 255.349 136.233L248.939 155.959C243.158 154.081 237.015 153.597 231.011 154.548C225.007 155.499 219.314 157.857 214.396 161.43C209.478 165.003 205.476 169.689 202.716 175.105C199.957 180.521 198.518 186.514 198.518 192.592L177.777 192.592Z" fill="#488586"/>
<path d="M129.834 136.233C138.728 133.344 148.18 132.6 157.416 134.063C166.653 135.526 175.412 139.154 182.978 144.651C190.543 150.147 196.701 157.357 200.946 165.689C205.192 174.022 207.405 183.241 207.405 192.592L186.664 192.592C186.664 186.514 185.226 180.521 182.466 175.105C179.707 169.689 175.704 165.003 170.787 161.43C165.869 157.857 160.175 155.499 154.172 154.548C148.168 153.597 142.024 154.081 136.243 155.959L129.834 136.233Z" fill="#488586"/>
<circle cx="200" cy="200" r="195" stroke="#488586" stroke-width="10"/>
</svg>
