<svg width="27" height="27" viewBox="0 0 27 27" fill="none" xmlns="http://www.w3.org/2000/svg">
<path d="M5.38982 19.3234V19.8234H5.88982H13.0663V20.7425H5.88982C5.42771 20.7425 5.08147 20.5907 4.85201 20.3612C4.62256 20.1318 4.4707 19.7855 4.4707 19.3234V5.88958C4.4707 5.42747 4.62256 5.08123 4.85201 4.85177C5.08147 4.62231 5.42771 4.47046 5.88982 4.47046H25.081C25.5431 4.47046 25.8893 4.62231 26.1188 4.85177C26.3483 5.08123 26.5001 5.42747 26.5001 5.88958V19.3234C26.5001 19.7855 26.3483 20.1318 26.1188 20.3612C25.8893 20.5907 25.5431 20.7425 25.081 20.7425H19.1317H18.8714L18.7221 20.9558L14.9883 26.2899L14.2549 25.7399L18.4312 19.8234H25.081H25.581V19.3234V5.88958V5.38958H25.081H5.88982H5.38982V5.88958V19.3234Z" fill="#DADADA" stroke="#D7DBE4"/>
<path d="M1.38603 14.5882H0.5V2.82904C0.5 1.50206 1.50206 0.5 2.82904 0.5H14.5882V1.38603H2.82904C2.43252 1.38603 2.06322 1.52039 1.79181 1.79181C1.52039 2.06322 1.38603 2.43252 1.38603 2.82904V14.5882Z" fill="#DADADA" stroke="#D7DBE4"/>
</svg>
