<svg width="27" height="27" viewBox="0 0 27 27" fill="none" xmlns="http://www.w3.org/2000/svg">
<rect x="12" y="6" width="2" height="2" fill="#D9D9D9"/>
<rect x="12.25" y="13" width="1.5" height="8" fill="#D9D9D9"/>
<path d="M9.1947 14.7672C9.45503 13.9636 9.96309 13.2631 10.646 12.766C11.329 12.2689 12.1518 12.0007 12.9965 12L12.9974 12.96C12.3554 12.9606 11.73 13.1643 11.211 13.5421C10.6919 13.9199 10.3058 14.4524 10.108 15.0631L9.1947 14.7672Z" fill="#D9D9D9"/>
<path d="M13 12C13.8447 12 14.6678 12.2674 15.3511 12.7639C16.0345 13.2604 16.5432 13.9606 16.8042 14.7639L15.8912 15.0606C15.6928 14.45 15.3062 13.9179 14.7869 13.5406C14.2675 13.1632 13.642 12.96 13 12.96L13 12Z" fill="#D9D9D9"/>
<path d="M12.1716 12.1716C12.543 11.8001 12.984 11.5055 13.4693 11.3045C13.9546 11.1035 14.4747 11 15 11C15.5253 11 16.0454 11.1035 16.5307 11.3045C17.016 11.5055 17.457 11.8001 17.8284 12.1716L16.9799 13.0201C16.7199 12.7601 16.4112 12.5539 16.0715 12.4131C15.7318 12.2724 15.3677 12.2 15 12.2C14.6323 12.2 14.2682 12.2724 13.9285 12.4131C13.5888 12.5539 13.2801 12.7601 13.0201 13.0201L12.1716 12.1716Z" fill="#D9D9D9"/>
<path d="M8.17157 12.1716C8.54301 11.8001 8.98396 11.5055 9.46927 11.3045C9.95457 11.1035 10.4747 11 11 11C11.5253 11 12.0454 11.1035 12.5307 11.3045C13.016 11.5055 13.457 11.8001 13.8284 12.1716L12.9799 13.0201C12.7199 12.7601 12.4112 12.5539 12.0715 12.4131C11.7318 12.2724 11.3677 12.2 11 12.2C10.6323 12.2 10.2682 12.2724 9.92849 12.4131C9.58877 12.5539 9.2801 12.7601 9.0201 13.0201L8.17157 12.1716Z" fill="#D9D9D9"/>
<path d="M12 13C12 12.3688 12.1494 11.7465 12.436 11.184C12.7226 10.6216 13.1382 10.135 13.6489 9.76393C14.1595 9.3929 14.7508 9.14799 15.3743 9.04925C15.9977 8.9505 16.6357 9.00071 17.2361 9.19577L16.8034 10.5273C16.4132 10.4005 15.9985 10.3678 15.5933 10.432C15.188 10.4962 14.8037 10.6554 14.4718 10.8966C14.1398 11.1377 13.8697 11.454 13.6834 11.8196C13.4971 12.1852 13.4 12.5897 13.4 13L12 13Z" fill="#D9D9D9"/>
<path d="M8.76393 9.19577C9.36428 9.00071 10.0023 8.9505 10.6257 9.04925C11.2492 9.14799 11.8405 9.3929 12.3511 9.76393C12.8618 10.135 13.2774 10.6216 13.564 11.184C13.8506 11.7465 14 12.3688 14 13L12.6 13C12.6 12.5897 12.5029 12.1852 12.3166 11.8196C12.1303 11.454 11.8602 11.1377 11.5282 10.8966C11.1963 10.6554 10.812 10.4962 10.4067 10.432C10.0015 10.3678 9.58678 10.4005 9.19656 10.5273L8.76393 9.19577Z" fill="#D9D9D9"/>
<circle cx="13.5" cy="13.5" r="12.5" stroke="#D7DBE4" stroke-width="2"/>
</svg>
