<svg width="28" height="27" viewBox="0 0 28 27" fill="none" xmlns="http://www.w3.org/2000/svg">
<path d="M23.683 26H16.4831V19.9344V18.9344H15.4831H12.0239H11.0239V19.9344V26H4.3182C4.3177 25.9982 4.31715 25.9953 4.31715 25.9906V16.7264V15.7264H3.31715H1.9767C1.45845 15.7264 1 15.2888 1 14.7077C1 14.4318 1.10842 14.1693 1.29491 13.9787C1.29499 13.9786 1.29508 13.9785 1.29516 13.9784L14.0006 1.01214L26.706 13.9784C27.0977 14.3785 27.0977 15.0353 26.7077 15.4352L26.7062 15.4368C26.5239 15.6245 26.2793 15.7264 26.0245 15.7264H24.684H23.684V16.7264V25.9906C23.684 25.9942 23.6837 25.9967 23.6833 25.9985C23.6832 25.9991 23.6831 25.9996 23.683 26Z" stroke="black" stroke-width="2"/>
</svg>
