<svg width="34" height="28" viewBox="0 0 34 28" fill="none" xmlns="http://www.w3.org/2000/svg">
<path d="M18.1915 17.7313L13.4899 10.8C12.7203 9.85143 12.2247 8.69412 12.0608 7.46287C11.8969 6.23162 12.0715 4.9771 12.5641 3.84541C13.0568 2.71372 13.8473 1.75144 14.8436 1.07064C15.8399 0.389846 17.0009 0.0185513 18.1915 0C19.8419 0.0170263 21.4186 0.71618 22.5762 1.94433C23.7338 3.17249 24.378 4.82953 24.3677 6.55254C24.3683 8.05562 23.8782 9.51402 22.9781 10.6872L18.1915 17.7313ZM18.1915 1.61194C16.95 1.62682 15.7648 2.15547 14.8963 3.08179C14.0278 4.00812 13.547 5.2564 13.5593 6.55254C13.5645 7.73556 13.9722 8.87816 14.7097 9.77642L18.1915 14.9266L21.766 9.67164C22.4454 8.78624 22.8182 7.68702 22.8237 6.55254C22.836 5.2564 22.3552 4.00812 21.4867 3.08179C20.6182 2.15547 19.433 1.62682 18.1915 1.61194Z" fill="#DADADA"/>
<path d="M18.1915 17.7313L13.4899 10.8C12.7203 9.85143 12.2247 8.69412 12.0608 7.46287C11.8969 6.23162 12.0715 4.9771 12.5641 3.84541C13.0568 2.71372 13.8473 1.75144 14.8436 1.07064C15.8399 0.389846 17.0009 0.0185513 18.1915 0C19.8419 0.0170263 21.4186 0.71618 22.5762 1.94433C23.7338 3.17249 24.378 4.82953 24.3677 6.55254C24.3683 8.05562 23.8782 9.51402 22.9781 10.6872L18.1915 17.7313ZM18.1915 1.61194C16.95 1.62682 15.7648 2.15547 14.8963 3.08179C14.0278 4.00812 13.547 5.2564 13.5593 6.55254C13.5645 7.73556 13.9722 8.87816 14.7097 9.77642L18.1915 14.9266L21.766 9.67164C22.4454 8.78624 22.8182 7.68702 22.8237 6.55254C22.836 5.2564 22.3552 4.00812 21.4867 3.08179C20.6182 2.15547 19.433 1.62682 18.1915 1.61194Z" stroke="#D7DBE4"/>
<path d="M18.1858 7.50167C19.0845 7.50167 19.813 6.73834 19.813 5.79673C19.813 4.85512 19.0845 4.0918 18.1858 4.0918C17.2871 4.0918 16.5586 4.85512 16.5586 5.79673C16.5586 6.73834 17.2871 7.50167 18.1858 7.50167Z" fill="#DADADA"/>
<path d="M18.1858 7.50167C19.0845 7.50167 19.813 6.73834 19.813 5.79673C19.813 4.85512 19.0845 4.0918 18.1858 4.0918C17.2871 4.0918 16.5586 4.85512 16.5586 5.79673C16.5586 6.73834 17.2871 7.50167 18.1858 7.50167Z" stroke="#D7DBE4"/>
<path d="M11.6154 2.82102L10.0769 1.61206H8.15385L5.46154 2.41803L6.23077 4.43296L5.84615 4.83594H5.07692V5.64191L3.92308 6.44788L2.38462 6.0449L2 8.86579H3.15385L5.46154 12.8956L5.84615 14.1046C6.23077 14.5076 7.07692 15.3941 7.38462 15.7165L8.15385 16.5225V18.9404L9.30769 20.9553L10.0769 21.3583L12.3846 24.5822V25.7912L13.1538 26.1941V26.5971L13.5385 27.0001H14.6923V25.3882L15.4615 25.7912H18.9231L19.6923 26.1941H20.8462V24.9852L22.7692 23.7762L26.2308 22.9703L30.8462 21.3583L32 17.7315L31.2308 16.5225L27.3846 16.1195L25.8462 13.2986L25.0769 13.7016L23.1538 11.6867" stroke="#D7DBE4" stroke-width="1.9"/>
</svg>
