<svg width="31" height="25" viewBox="0 0 31 25" fill="none" xmlns="http://www.w3.org/2000/svg">
<path d="M10.85 5.33691V10.625L8.87859 11.8164C8.17625 12.2412 7.75 13.0029 7.75 13.8281V25H12.4V20.3125C12.4 18.5889 13.7902 17.1875 15.5 17.1875C17.2098 17.1875 18.6 18.5889 18.6 20.3125V25H23.25V13.8281C23.25 13.0029 22.8237 12.2412 22.1214 11.8164L20.15 10.625V5.33691C20.15 4.92188 19.9853 4.52637 19.6947 4.2334L16.0473 0.551758C15.747 0.249023 15.253 0.249023 14.9527 0.551758L11.3053 4.22852C11.0147 4.52148 10.85 4.91699 10.85 5.33203V5.33691ZM1.20609 16.1279C0.460156 16.543 0 17.3291 0 18.1836V22.6562C0 23.9502 1.04141 25 2.325 25H6.2V13.3594L1.20609 16.1279ZM28.675 25C29.9586 25 31 23.9502 31 22.6562V18.1836C31 17.3291 30.5398 16.543 29.7939 16.1279L24.8 13.3594V25H28.675Z" fill="white"/>
</svg>
